<mxfile host="app.diagrams.net" modified="2022-08-25T19:23:38.334Z" agent="5.0 (Macintosh; Intel Mac OS X 10_15_7) AppleWebKit/537.36 (KHTML, like Gecko) Chrome/104.0.0.0 Safari/537.36" etag="RjiShrNtG0-XSh1qOyn9" version="20.2.7" type="github">
  <diagram id="cf2r2SaaGhS8XV817-tS" name="第 1 页">
    <mxGraphModel dx="1234" dy="793" grid="1" gridSize="10" guides="1" tooltips="1" connect="1" arrows="1" fold="1" page="1" pageScale="1" pageWidth="827" pageHeight="1169" math="0" shadow="0">
      <root>
        <mxCell id="0" />
        <mxCell id="1" parent="0" />
        <mxCell id="uyzYFgQdXdeEzOQn8JSZ-69" value="" style="rounded=0;whiteSpace=wrap;html=1;dashed=1;fontColor=#FFFF00;strokeColor=#0000FF;" vertex="1" parent="1">
          <mxGeometry x="260" y="220" width="530" height="390" as="geometry" />
        </mxCell>
        <mxCell id="uyzYFgQdXdeEzOQn8JSZ-70" value="" style="rounded=0;whiteSpace=wrap;html=1;dashed=1;fontColor=#FFFF00;strokeColor=#0000FF;" vertex="1" parent="1">
          <mxGeometry x="470" y="260" width="310" height="210" as="geometry" />
        </mxCell>
        <mxCell id="uyzYFgQdXdeEzOQn8JSZ-60" value="" style="rounded=0;whiteSpace=wrap;html=1;strokeColor=#0000FF;labelBackgroundColor=none;fontColor=none;noLabel=1;fillColor=none;" vertex="1" parent="1">
          <mxGeometry x="270" y="375" width="390" height="90" as="geometry" />
        </mxCell>
        <mxCell id="uyzYFgQdXdeEzOQn8JSZ-29" value="" style="edgeStyle=none;rounded=0;orthogonalLoop=1;jettySize=auto;html=1;exitX=0.25;exitY=1;exitDx=0;exitDy=0;entryX=0.25;entryY=0;entryDx=0;entryDy=0;" edge="1" parent="1" source="uyzYFgQdXdeEzOQn8JSZ-2" target="uyzYFgQdXdeEzOQn8JSZ-5">
          <mxGeometry relative="1" as="geometry" />
        </mxCell>
        <mxCell id="uyzYFgQdXdeEzOQn8JSZ-2" value="交易流插件" style="rounded=0;whiteSpace=wrap;html=1;" vertex="1" parent="1">
          <mxGeometry x="520" y="280" width="110" height="60" as="geometry" />
        </mxCell>
        <mxCell id="uyzYFgQdXdeEzOQn8JSZ-3" value="业务模块首页、工作台、搜推..." style="rounded=0;whiteSpace=wrap;html=1;" vertex="1" parent="1">
          <mxGeometry x="280" y="280" width="170" height="60" as="geometry" />
        </mxCell>
        <mxCell id="uyzYFgQdXdeEzOQn8JSZ-4" value="公共库" style="rounded=0;whiteSpace=wrap;html=1;" vertex="1" parent="1">
          <mxGeometry x="280" y="390" width="170" height="60" as="geometry" />
        </mxCell>
        <mxCell id="uyzYFgQdXdeEzOQn8JSZ-32" value="" style="edgeStyle=none;rounded=0;orthogonalLoop=1;jettySize=auto;html=1;entryX=0.75;entryY=1;entryDx=0;entryDy=0;exitX=0.75;exitY=0;exitDx=0;exitDy=0;" edge="1" parent="1" source="uyzYFgQdXdeEzOQn8JSZ-5" target="uyzYFgQdXdeEzOQn8JSZ-2">
          <mxGeometry relative="1" as="geometry" />
        </mxCell>
        <mxCell id="uyzYFgQdXdeEzOQn8JSZ-50" value="" style="edgeStyle=none;rounded=0;orthogonalLoop=1;jettySize=auto;html=1;exitX=1;exitY=0.75;exitDx=0;exitDy=0;strokeColor=#FF0000;" edge="1" parent="1" source="uyzYFgQdXdeEzOQn8JSZ-5">
          <mxGeometry relative="1" as="geometry">
            <mxPoint x="690" y="170" as="targetPoint" />
            <Array as="points">
              <mxPoint x="690" y="435" />
            </Array>
          </mxGeometry>
        </mxCell>
        <mxCell id="uyzYFgQdXdeEzOQn8JSZ-63" value="" style="edgeStyle=none;rounded=0;orthogonalLoop=1;jettySize=auto;html=1;strokeColor=#8A8A8A;" edge="1" parent="1" source="uyzYFgQdXdeEzOQn8JSZ-5" target="uyzYFgQdXdeEzOQn8JSZ-4">
          <mxGeometry relative="1" as="geometry" />
        </mxCell>
        <mxCell id="uyzYFgQdXdeEzOQn8JSZ-5" value="插件开放平台" style="rounded=0;whiteSpace=wrap;html=1;" vertex="1" parent="1">
          <mxGeometry x="520" y="390" width="110" height="60" as="geometry" />
        </mxCell>
        <mxCell id="uyzYFgQdXdeEzOQn8JSZ-22" style="edgeStyle=orthogonalEdgeStyle;rounded=0;orthogonalLoop=1;jettySize=auto;html=1;entryX=1;entryY=0.5;entryDx=0;entryDy=0;exitX=0.959;exitY=1;exitDx=0;exitDy=0;exitPerimeter=0;strokeColor=#FF0000;" edge="1" parent="1" source="uyzYFgQdXdeEzOQn8JSZ-7" target="uyzYFgQdXdeEzOQn8JSZ-5">
          <mxGeometry relative="1" as="geometry">
            <Array as="points">
              <mxPoint x="673" y="420" />
            </Array>
          </mxGeometry>
        </mxCell>
        <mxCell id="uyzYFgQdXdeEzOQn8JSZ-7" value="Android宿主应用层" style="rounded=0;whiteSpace=wrap;html=1;" vertex="1" parent="1">
          <mxGeometry x="255" y="120" width="540" height="60" as="geometry" />
        </mxCell>
        <mxCell id="uyzYFgQdXdeEzOQn8JSZ-46" value="" style="edgeStyle=none;shape=flexArrow;rounded=0;orthogonalLoop=1;jettySize=auto;html=1;exitX=0.489;exitY=1.033;exitDx=0;exitDy=0;exitPerimeter=0;" edge="1" parent="1" source="uyzYFgQdXdeEzOQn8JSZ-7">
          <mxGeometry relative="1" as="geometry">
            <mxPoint x="520" y="170" as="sourcePoint" />
            <mxPoint x="520" y="230" as="targetPoint" />
            <Array as="points" />
          </mxGeometry>
        </mxCell>
        <mxCell id="uyzYFgQdXdeEzOQn8JSZ-47" value="Aura配置表" style="edgeLabel;html=1;align=center;verticalAlign=middle;resizable=0;points=[];" vertex="1" connectable="0" parent="uyzYFgQdXdeEzOQn8JSZ-46">
          <mxGeometry x="-0.3217" y="-1" relative="1" as="geometry">
            <mxPoint as="offset" />
          </mxGeometry>
        </mxCell>
        <mxCell id="uyzYFgQdXdeEzOQn8JSZ-10" value="应用层" style="text;html=1;align=center;verticalAlign=middle;resizable=0;points=[];autosize=1;strokeColor=none;fillColor=none;" vertex="1" parent="1">
          <mxGeometry x="170" y="135" width="60" height="30" as="geometry" />
        </mxCell>
        <mxCell id="uyzYFgQdXdeEzOQn8JSZ-11" value="业务层" style="text;html=1;align=center;verticalAlign=middle;resizable=0;points=[];autosize=1;strokeColor=none;fillColor=none;" vertex="1" parent="1">
          <mxGeometry x="170" y="295" width="60" height="30" as="geometry" />
        </mxCell>
        <mxCell id="uyzYFgQdXdeEzOQn8JSZ-12" value="公共依赖层" style="text;html=1;align=center;verticalAlign=middle;resizable=0;points=[];autosize=1;strokeColor=none;fillColor=none;" vertex="1" parent="1">
          <mxGeometry x="160" y="405" width="80" height="30" as="geometry" />
        </mxCell>
        <mxCell id="uyzYFgQdXdeEzOQn8JSZ-26" value="&lt;font color=&quot;#7ea6e0&quot;&gt;阿波罗&lt;/font&gt;" style="text;html=1;align=center;verticalAlign=middle;resizable=0;points=[];autosize=1;strokeColor=none;fillColor=none;" vertex="1" parent="1">
          <mxGeometry x="470" y="280" width="60" height="30" as="geometry" />
        </mxCell>
        <mxCell id="uyzYFgQdXdeEzOQn8JSZ-36" value="打通宿主与插件通信" style="text;html=1;align=center;verticalAlign=middle;resizable=0;points=[];autosize=1;strokeColor=none;fillColor=none;fontColor=#FF0000;" vertex="1" parent="1">
          <mxGeometry x="640" y="295" width="130" height="30" as="geometry" />
        </mxCell>
        <mxCell id="uyzYFgQdXdeEzOQn8JSZ-44" value="Aura平台" style="text;html=1;align=center;verticalAlign=middle;resizable=0;points=[];autosize=1;strokeColor=none;fillColor=none;" vertex="1" parent="1">
          <mxGeometry x="290" y="240" width="70" height="30" as="geometry" />
        </mxCell>
        <mxCell id="uyzYFgQdXdeEzOQn8JSZ-52" value="基础组件层" style="text;html=1;align=center;verticalAlign=middle;resizable=0;points=[];autosize=1;strokeColor=none;fillColor=none;" vertex="1" parent="1">
          <mxGeometry x="160" y="535" width="80" height="30" as="geometry" />
        </mxCell>
        <mxCell id="uyzYFgQdXdeEzOQn8JSZ-53" value="统一UI" style="rounded=0;whiteSpace=wrap;html=1;" vertex="1" parent="1">
          <mxGeometry x="280" y="520" width="60" height="60" as="geometry" />
        </mxCell>
        <mxCell id="uyzYFgQdXdeEzOQn8JSZ-54" value="日志" style="rounded=0;whiteSpace=wrap;html=1;" vertex="1" parent="1">
          <mxGeometry x="350" y="520" width="60" height="60" as="geometry" />
        </mxCell>
        <mxCell id="uyzYFgQdXdeEzOQn8JSZ-55" value="网络" style="rounded=0;whiteSpace=wrap;html=1;" vertex="1" parent="1">
          <mxGeometry x="420" y="520" width="60" height="60" as="geometry" />
        </mxCell>
        <mxCell id="uyzYFgQdXdeEzOQn8JSZ-59" value="适配层" style="rounded=0;whiteSpace=wrap;html=1;" vertex="1" parent="1">
          <mxGeometry x="280" y="485" width="410" height="20" as="geometry" />
        </mxCell>
        <mxCell id="uyzYFgQdXdeEzOQn8JSZ-61" value="埋点" style="rounded=0;whiteSpace=wrap;html=1;" vertex="1" parent="1">
          <mxGeometry x="490" y="520" width="60" height="60" as="geometry" />
        </mxCell>
        <mxCell id="uyzYFgQdXdeEzOQn8JSZ-62" value="sdk..." style="rounded=0;whiteSpace=wrap;html=1;" vertex="1" parent="1">
          <mxGeometry x="630" y="520" width="60" height="60" as="geometry" />
        </mxCell>
        <mxCell id="uyzYFgQdXdeEzOQn8JSZ-64" value="RN" style="rounded=0;whiteSpace=wrap;html=1;" vertex="1" parent="1">
          <mxGeometry x="560" y="520" width="60" height="60" as="geometry" />
        </mxCell>
      </root>
    </mxGraphModel>
  </diagram>
</mxfile>
